<?xml version="1.0" encoding="iso-8859-1"?>
<!-- Generator: Adobe Illustrator 25.2.3, SVG Export Plug-In . SVG Version: 6.00 Build 0)  -->
<svg version="1.1" baseProfile="basic" id="Layer_1"
	 xmlns="http://www.w3.org/2000/svg" xmlns:xlink="http://www.w3.org/1999/xlink" x="0px" y="0px" viewBox="0 0 48 48"
	 xml:space="preserve">
<path style="fill:none;stroke:#000000;stroke-width:2;stroke-linecap:round;stroke-linejoin:round;stroke-miterlimit:10;" d="M33,5
	H15C9.477,5,5,9.477,5,15v18c0,5.523,4.477,10,10,10h18c5.523,0,10-4.477,10-10V15C43,9.477,38.523,5,33,5z"/>
<path style="fill:none;stroke:#000000;stroke-width:2;stroke-linecap:round;stroke-linejoin:round;stroke-miterlimit:10;" d="M24,15
	c-4.971,0-9,4.029-9,9s4.029,9,9,9s9-4.029,9-9S28.971,15,24,15z"/>
<path d="M35,11c-1.105,0-2,0.895-2,2s0.895,2,2,2s2-0.895,2-2S36.105,11,35,11z"/>
</svg>