<?xml version="1.0" encoding="utf-8"?><!-- Generator: Adobe Illustrator 21.0.0, SVG Export Plug-In . SVG Version: 6.00 Build 0)  --><svg xmlns="http://www.w3.org/2000/svg" xmlns:xlink="http://www.w3.org/1999/xlink" viewBox="0 0 100 100" width="400px" height="400px"><g id="wind_sock"></g><g id="umbrella"></g><g id="temperature"></g><g id="snow_rain_night"></g><g id="snow_rain_day"></g><g id="windy_day"></g><g id="windy_night"></g><g id="storm_night"></g><g id="clear_night"></g><g id="snow_night"></g><g id="snow_day"></g><g id="snow_rain"></g><g id="foggy_night"></g><g id="cloudy_night"></g><g id="rain"></g><g id="storm"></g><g id="fog"></g><g id="wind"></g><g id="cloudy"></g><g id="sun"></g><g id="explorer"></g><g id="visio"></g><g id="access"></g><g id="note"></g><g id="outlook"></g><g id="pdf"></g><g id="power_point"></g><g id="exel"></g><g id="word"></g><g id="office"></g><g id="bridge"></g><g id="muse"></g><g id="flash"></g><g id="premiere"></g><g id="after_effects"></g><g id="dreamwever"></g><g id="indesign"></g><g id="lightroom"></g><g id="illustrator"></g><g id="photoshop"></g><g id="presentation"></g><g id="microphone"></g><g id="globe"></g><g id="password"></g><g id="break_link"></g><g id="link"></g><g id="tap"></g><g id="down"></g><g id="top"></g><g id="direction"></g><g id="move"></g><g id="click"></g><g id="point"></g><g id="like"></g><g id="support"></g><g id="wifi"></g><g id="music"></g><g id="more"></g><g id="visible"></g><g id="error"></g><g id="list"></g><g id="grid"></g><g id="favorite"></g><g id="exit"></g><g id="power"></g><g id="delete"></g><g id="msg"></g><g id="info"></g><g id="help"></g><g id="warning"></g><g id="cassete"></g><g id="piano"></g><g id="speaker"></g><g id="attention"></g><g id="crown"></g><g id="prize"></g><g id="medal"></g><g id="alarm"></g><g id="stopper"></g><g id="flag"></g><g id="snapchat"></g><g id="dribbble"></g><g id="flickr"></g><g id="youtube"></g><g id="skype"></g><g id="twitter"></g><g id="instagram"></g><g id="linkedin"><g><path d="M69.307,17.654h-39c-7.168,0-13,5.832-13,13v39c0,7.168,5.832,13,13,13h39c7.168,0,13-5.832,13-13v-39C82.307,23.485,76.476,17.654,69.307,17.654z M80.307,69.654c0,6.065-4.935,11-11,11h-39c-6.065,0-11-4.935-11-11v-39c0-6.065,4.935-11,11-11h39c6.065,0,11,4.935,11,11V69.654z"/><path d="M76.807,47.654c-0.276,0-0.5,0.224-0.5,0.5v18.663c0,5.424-4.413,9.837-9.837,9.837H33.144c-5.424,0-9.837-4.413-9.837-9.837V33.49c0-5.424,4.413-9.837,9.837-9.837h33.663c0.276,0,0.5-0.224,0.5-0.5s-0.224-0.5-0.5-0.5H33.144c-5.976,0-10.837,4.861-10.837,10.837v33.326c0,5.976,4.861,10.837,10.837,10.837H66.47c5.976,0,10.837-4.861,10.837-10.837V48.154C77.307,47.877,77.083,47.654,76.807,47.654z"/><path d="M76.807,41.654c-0.276,0-0.5,0.224-0.5,0.5v4c0,0.276,0.224,0.5,0.5,0.5s0.5-0.224,0.5-0.5v-4C77.307,41.877,77.083,41.654,76.807,41.654z"/><path d="M76.307,38.154v2c0,0.276,0.224,0.5,0.5,0.5s0.5-0.224,0.5-0.5v-2c0-0.276-0.224-0.5-0.5-0.5S76.307,37.877,76.307,38.154z"/><path d="M35.807,44.654c-0.276,0-0.5,0.224-0.5,0.5v19c0,0.276,0.224,0.5,0.5,0.5h6c0.276,0,0.5-0.224,0.5-0.5v-19c0-0.276-0.224-0.5-0.5-0.5H35.807z M41.307,63.654h-5v-18h5V63.654z"/><path d="M38.825,35.695c-2.087,0-3.602,1.463-3.602,3.479s1.484,3.479,3.565,3.479c2.087,0,3.602-1.463,3.602-3.491C42.34,37.121,40.873,35.695,38.825,35.695z M38.753,41.654c-1.489,0-2.53-1.02-2.53-2.479c0-1.46,1.07-2.479,2.602-2.479c1.521,0,2.528,0.978,2.565,2.479C41.391,40.634,40.321,41.654,38.753,41.654z"/><path d="M45.375,64.506c0.094,0.094,0.222,0.147,0.354,0.147h6.077c0.276,0,0.5-0.224,0.5-0.5V53.54c0-0.612,0.059-1.067,0.176-1.354c0.243-0.6,1-1.997,2.784-1.997c2.668,0,2.956,2.708,2.956,3.876l0.083,10.092c0.002,0.275,0.226,0.496,0.5,0.496h6c0.276,0,0.5-0.224,0.5-0.5V53.974c0-3.33-0.821-5.838-2.441-7.456c-1.32-1.318-3.099-1.986-5.288-1.986c-2.2,0.013-3.983,0.669-5.271,2.05v-1.43c0-0.276-0.224-0.5-0.5-0.5H45.73c-0.137,0-0.267,0.056-0.362,0.155c-0.094,0.099-0.144,0.232-0.138,0.368c0.081,1.749,0,18.803,0,18.975C45.229,64.284,45.282,64.412,45.375,64.506z M46.243,45.654h5.064v2.304c-0.056,0.141-0.033,0.304,0.043,0.441c0.089,0.157,0.276,0.255,0.457,0.255c0.208,0,0.386-0.165,0.461-0.364c0.73-1.2,2.077-2.756,5.292-2.756c0.006,0,0.011,0,0.017,0c1.915,0,3.457,0.57,4.582,1.693c1.425,1.423,2.148,3.693,2.148,6.748v9.679h-5.004l-0.08-9.592c0-3.005-1.516-4.873-3.956-4.873c-1.66,0-3.047,0.98-3.71,2.62c-0.168,0.412-0.25,0.978-0.25,1.731v10.113h-5.075C46.245,60.957,46.296,48.681,46.243,45.654z"/></g></g><g id="vimeo"></g><g id="tumbler"></g><g id="google"></g><g id="whatsapp"></g><g id="facebook"></g><g id="curve"></g><g id="paint_bucket"></g><g id="roller"></g><g id="switch"></g><g id="scissors"></g><g id="picker"></g><g id="brush"></g></svg>