<?xml version="1.0" encoding="iso-8859-1"?>
<!-- Generator: Adobe Illustrator 24.1.2, SVG Export Plug-In . SVG Version: 6.00 Build 0)  -->
<svg version="1.1" baseProfile="basic" id="Layer_1"
	 xmlns="http://www.w3.org/2000/svg" xmlns:xlink="http://www.w3.org/1999/xlink" x="0px" y="0px" viewBox="0 0 48 48"
	 xml:space="preserve">
<path style="fill:none;stroke:#ffffff;stroke-width:3;stroke-miterlimit:10;" d="M35.5,40.5h-23c-2.761,0-5-2.239-5-5v-23
	c0-2.761,2.239-5,5-5h23c2.761,0,5,2.239,5,5v23C40.5,38.261,38.261,40.5,35.5,40.5z"/>
<g>
	<path d="M34.257,34h-6.437L13.829,14h6.437L34.257,34z M28.587,32.304h2.563L19.499,15.696h-2.563L28.587,32.304z"/>
	<polygon points="15.866,34 23.069,25.656 22.127,24.407 13.823,34 	"/>
	<polygon points="24.45,21.721 25.355,23.01 33.136,14 31.136,14 	"/>
</g>
</svg>